<?xml version="1.0" encoding="UTF-8"?>
<svg version="1.1" xmlns="http://www.w3.org/2000/svg" width="247" height="61">
<path d="M0 0 C81.51 0 163.02 0 247 0 C247 20.13 247 40.26 247 61 C165.49 61 83.98 61 0 61 C0 40.87 0 20.74 0 0 Z " fill="#1A1819" transform="translate(0,0)"/>
<path d="M0 0 C-0.144375 0.804375 -0.28875 1.60875 -0.4375 2.4375 C-0.8528902 5.06830459 -1.20770803 7.66795358 -1.5 10.3125 C-1.58507813 11.07433594 -1.67015625 11.83617187 -1.7578125 12.62109375 C-1.92222374 14.23603639 -2.06203354 15.85363545 -2.1796875 17.47265625 C-2.24414062 18.26542969 -2.30859375 19.05820312 -2.375 19.875 C-2.42398438 20.59429687 -2.47296875 21.31359375 -2.5234375 22.0546875 C-3.11624122 24.47449284 -4.1887533 25.34320069 -6 27 C-6.268125 27.7425 -6.53625 28.485 -6.8125 29.25 C-8.79019135 33.82991682 -11.80433997 37.8627607 -16.28515625 40.18359375 C-24.74420493 42.727394 -33.60358241 41.36458546 -41.6953125 38.265625 C-44.27974178 36.84637909 -45.94651551 35.09608791 -48 33 C-48.99 32.67 -49.98 32.34 -51 32 C-51.625 29.625 -51.625 29.625 -52 27 C-51.34 26.34 -50.68 25.68 -50 25 C-49.3574765 22.93125966 -49.3574765 22.93125966 -49 21 C-48.34 21.33 -47.68 21.66 -47 22 C-42.90470548 18.77340432 -38.94307315 15.40899696 -35 12 C-34.25234375 12.80566406 -33.5046875 13.61132812 -32.734375 14.44140625 C-31.74025802 15.48241554 -30.74542904 16.52274524 -29.75 17.5625 C-29.25886719 18.09552734 -28.76773437 18.62855469 -28.26171875 19.17773438 C-26.64729015 20.90226991 -26.64729015 20.90226991 -24 23 C-20.68467043 22.71178167 -19.07615637 21.42350472 -16.8359375 19.05859375 C-16.27132812 18.47529297 -15.70671875 17.89199219 -15.125 17.29101562 C-14.5475 16.67935547 -13.97 16.06769531 -13.375 15.4375 C-12.22073345 14.22348618 -11.06208966 13.01361428 -9.8984375 11.80859375 C-9.38974121 11.27032959 -8.88104492 10.73206543 -8.35693359 10.17749023 C-7 9 -7 9 -5 9 C-4.34 7.02 -3.68 5.04 -3 3 C-5.31 3.33 -7.62 3.66 -10 4 C-9.67 3.34 -9.34 2.68 -9 2 C-2.88888889 0 -2.88888889 0 0 0 Z " fill="#012F1D" transform="translate(54,16)"/>
<path d="M0 0 C13.86 0 27.72 0 42 0 C41.67 1.32 41.34 2.64 41 4 C38.69 4 36.38 4 34 4 C34 13.57 34 23.14 34 33 C33.01 33.495 33.01 33.495 32 34 C32 25.75 32 17.5 32 9 C30.02 9 28.04 9 26 9 C26 15.27 26 21.54 26 28 C25.01 27.67 24.02 27.34 23 27 C23 22.38 23 17.76 23 13 C21.02 13 19.04 13 17 13 C17.05220703 14.24716797 17.05220703 14.24716797 17.10546875 15.51953125 C17.13253906 16.60621094 17.15960937 17.69289063 17.1875 18.8125 C17.23970703 20.43091797 17.23970703 20.43091797 17.29296875 22.08203125 C17 25 17 25 14 28 C14 25.03 14 22.06 14 19 C12.02 19 10.04 19 8 19 C8 24.94 8 30.88 8 37 C7.01 37 6.02 37 5 37 C4.855625 37.78375 4.71125 38.5675 4.5625 39.375 C4 42 4 42 3 44 C3 45.32 3 46.64 3 48 C3.99 48 4.98 48 6 48 C6 48.99 6 49.98 6 51 C4.68 50.67 3.36 50.34 2 50 C2 48.68 2 47.36 2 46 C1.34 46 0.68 46 0 46 C0 30.82 0 15.64 0 0 Z " fill="#1E1B17" transform="translate(0,0)"/>
<path d="M0 0 C2.31 0 4.62 0 7 0 C7.495 10.395 7.495 10.395 8 21 C8.99 19.35 9.98 17.7 11 16 C14.1875 15.1875 14.1875 15.1875 17 15 C16.67 17.31 16.34 19.62 16 22 C15.40380859 22.1036084 14.80761719 22.2072168 14.19335938 22.31396484 C11.64771599 23.11018678 10.69017449 24.02243823 8.90625 25.9765625 C8.07287109 26.85828125 8.07287109 26.85828125 7.22265625 27.7578125 C6.07031954 29.00683052 4.92189733 30.25947095 3.77734375 31.515625 C3.22175781 32.10085937 2.66617188 32.68609375 2.09375 33.2890625 C1.34641602 34.10431396 1.34641602 34.10431396 0.58398438 34.93603516 C-1 36 -1 36 -3.03222656 35.81225586 C-6.10836827 34.54248868 -7.96117541 32.31667293 -10.25 29.9375 C-11.14203125 29.01839844 -12.0340625 28.09929688 -12.953125 27.15234375 C-13.62859375 26.44207031 -14.3040625 25.73179688 -15 25 C-15.43570312 25.37511719 -15.87140625 25.75023438 -16.3203125 26.13671875 C-20.18607599 29.45859777 -24.07657648 32.74642927 -28 36 C-27.67 35.01 -27.34 34.02 -27 33 C-26.85507877 31.59335074 -26.75371069 30.1818867 -26.68359375 28.76953125 C-26.64169922 27.96708984 -26.59980469 27.16464844 -26.55664062 26.33789062 C-26.51732422 25.50451172 -26.47800781 24.67113281 -26.4375 23.8125 C-26.39431641 22.96751953 -26.35113281 22.12253906 -26.30664062 21.25195312 C-26.20068482 19.16815567 -26.0998498 17.08409897 -26 15 C-24.02 15 -22.04 15 -20 15 C-19.67 17.64 -19.34 20.28 -19 23 C-17.64908472 20.29816945 -17.66141942 17.88191794 -17.4375 14.875 C-17.35371094 13.77929688 -17.26992188 12.68359375 -17.18359375 11.5546875 C-17.12300781 10.71164062 -17.06242187 9.86859375 -17 9 C-15.02 9 -13.04 9 -11 9 C-10.95101563 9.99902344 -10.90203125 10.99804688 -10.8515625 12.02734375 C-10.77679687 13.31769531 -10.70203125 14.60804687 -10.625 15.9375 C-10.55539063 17.22527344 -10.48578125 18.51304688 -10.4140625 19.83984375 C-10.27742188 20.88269531 -10.14078125 21.92554688 -10 23 C-9.34 23.33 -8.68 23.66 -8 24 C-8 17.73 -8 11.46 -8 5 C-6.02 5 -4.04 5 -2 5 C-1.67 12.92 -1.34 20.84 -1 29 C-0.67 19.43 -0.34 9.86 0 0 Z " fill="#4FE648" transform="translate(34,4)"/>
<path d="M0 0 C2.97 0 5.94 0 9 0 C9.33 10.89 9.66 21.78 10 33 C7.69 33 5.38 33 3 33 C2.67 32.01 2.34 31.02 2 30 C1.525625 30.495 1.05125 30.99 0.5625 31.5 C-3.22043359 33.71440015 -6.72164755 33.83889264 -11 33 C-13.75569447 30.81840855 -15.43588747 29.12822506 -17 26 C-17.52802088 21.18721956 -17.85640895 16.61076795 -15.125 12.4375 C-12.22378028 9.10963032 -12.22378028 9.10963032 -9.125 8.83203125 C-8.42375 8.82558594 -7.7225 8.81914062 -7 8.8125 C-6.29875 8.79832031 -5.5975 8.78414062 -4.875 8.76953125 C-3 9 -3 9 -1 11 C-0.67 7.37 -0.34 3.74 0 0 Z " fill="#F6F5F6" transform="translate(156,11)"/>
<path d="M0 0 C3.85544798 1.99657127 5.59805092 3.39707638 8 7 C8 9.64 8 12.28 8 15 C2.72 15 -2.56 15 -8 15 C-7.67 15.66 -7.34 16.32 -7 17 C-4.50312671 17.06935759 -2.39760351 17.1242511 0 16.375 C2.78537219 15.85274271 4.48955196 16.81451065 7 18 C3.25 22.875 3.25 22.875 1 24 C-4.14112877 24.5880376 -9.31516132 25.17453731 -13.5625 21.8125 C-16.97177303 17.87872343 -18.03249061 15.78698341 -17.9375 10.5625 C-16.76192992 6.09533368 -15.20335403 4.28148461 -12 1 C-8.29240268 -0.85379866 -4.04626515 -0.45923868 0 0 Z " fill="#F4F3F4" transform="translate(186,20)"/>
<path d="M0 0 C3.00197464 1.80118478 4.45166366 2.90332732 6 6 C6.31045526 8.59143905 6.50973912 11.18371732 6.71875 13.78515625 C6.7665741 15.97070668 6.7665741 15.97070668 8 17 C8.04092937 19.33297433 8.04241723 21.66705225 8 24 C1.375 24.25 1.375 24.25 -2 22 C-2.99 22.66 -3.98 23.32 -5 24 C-11.94214876 24.66115702 -11.94214876 24.66115702 -15.5 22.4375 C-17.60020266 19.02467068 -17.63210717 16.93311127 -17 13 C-15.0625 10.5625 -15.0625 10.5625 -12 9 C-8.96719442 8.69063354 -6.03580379 8.76189774 -3 9 C-3 8.01 -3 7.02 -3 6 C-6.63 6.66 -10.26 7.32 -14 8 C-14.66 6.02 -15.32 4.04 -16 2 C-10.6592155 -0.41883356 -5.79104683 -0.7304023 0 0 Z " fill="#F8F7F8" transform="translate(129,20)"/>
<path d="M0 0 C2.97 0 5.94 0 9 0 C9.50471197 1.76949612 10.00360685 3.54065223 10.5 5.3125 C10.7784375 6.29863281 11.056875 7.28476562 11.34375 8.30078125 C12 11 12 11 12 14 C12.66 14 13.32 14 14 14 C14.04898438 13.40832031 14.09796875 12.81664062 14.1484375 12.20703125 C14.56456867 7.80895528 15.04965595 4.03071103 17 0 C19.31 0 21.62 0 24 0 C23.33772699 5.92815113 21.85146232 11.42346348 20.125 17.125 C19.86847656 18.00542969 19.61195313 18.88585937 19.34765625 19.79296875 C16.10489668 30.59673554 16.10489668 30.59673554 11 34 C8.73828125 34.1953125 8.73828125 34.1953125 6.3125 34.125 C5.50425781 34.10695312 4.69601563 34.08890625 3.86328125 34.0703125 C3.24839844 34.04710937 2.63351563 34.02390625 2 34 C2 31.69 2 29.38 2 27 C3.65 26.67 5.3 26.34 7 26 C6.47227674 20.05476322 5.16826458 15.14238988 2.9375 9.625 C0 2.2173913 0 2.2173913 0 0 Z " fill="#F8F7F8" transform="translate(217,20)"/>
<path d="M0 0 C8.91 0 17.82 0 27 0 C27 2.31 27 4.62 27 7 C24.03 7 21.06 7 18 7 C18 15.25 18 23.5 18 32 C15.03 32 12.06 32 9 32 C9 24.08 9 16.16 9 8 C6.03 8 3.06 8 0 8 C0 5.36 0 2.72 0 0 Z " fill="#F5F4F5" transform="translate(65,12)"/>
<path d="M0 0 C1.32 0 2.64 0 4 0 C3.67486705 7.16918161 2.59668098 12.61066648 -2.76171875 17.66015625 C-8.1457065 21.96523093 -13.47336659 24.53421823 -20.3125 25.4375 C-28.92423839 24.41576833 -35.40587671 21.65247094 -41 15 C-39.55097031 11.68580902 -37.7319786 9.43407408 -35.1875 6.875 C-34.52105469 6.19179688 -33.85460937 5.50859375 -33.16796875 4.8046875 C-31 3 -31 3 -26 1 C-20.555 6.445 -20.555 6.445 -15 12 C-13.741875 11.05125 -12.48375 10.1025 -11.1875 9.125 C-8.82408779 7.34275472 -6.46485814 5.64323876 -4 4 C-5.56367357 7.52238047 -7.69495889 10.27123994 -10.125 13.25 C-10.84945312 14.14203125 -11.57390625 15.0340625 -12.3203125 15.953125 C-12.87460937 16.62859375 -13.42890625 17.3040625 -14 18 C-17.08672549 16.63609804 -18.18078756 15.78212782 -20.4375 13.0625 C-22.83790029 10.19372892 -24.71470215 8.68958175 -28 7 C-30.31 9.31 -32.62 11.62 -35 14 C-31.02054389 17.97945611 -27.07035017 19.91484391 -21.46484375 20.0703125 C-14.87571867 19.57339507 -9.70889016 18.18053044 -5.25 13.0625 C-1.96526044 8.59160449 -0.7527416 5.52010504 0 0 Z " fill="#15ACE8" transform="translate(46,31)"/>
<path d="M0 0 C6.27 0 12.54 0 19 0 C19 6.55559747 18.56885904 7.24102165 14.5 11.875 C13.24703125 13.32519531 13.24703125 13.32519531 11.96875 14.8046875 C11.3190625 15.52914062 10.669375 16.25359375 10 17 C13.3 17.33 16.6 17.66 20 18 C20 19.98 20 21.96 20 24 C13.4 24 6.8 24 0 24 C0 17.44440253 0.43114096 16.75897835 4.5 12.125 C5.3353125 11.15820312 6.170625 10.19140625 7.03125 9.1953125 C7.6809375 8.47085937 8.330625 7.74640625 9 7 C6.03 6.67 3.06 6.34 0 6 C0 4.02 0 2.04 0 0 Z " fill="#F9F8F9" transform="translate(196,20)"/>
<path d="M0 0 C2.64 0 5.28 0 8 0 C8.33 0.99 8.66 1.98 9 3 C9.391875 2.505 9.78375 2.01 10.1875 1.5 C12.55091715 -0.45593143 14.01435003 -0.24207973 17 0 C17 2.31 17 4.62 17 7 C11.25 9 11.25 9 9 9 C9 13.95 9 18.9 9 24 C6.03 24 3.06 24 0 24 C0 16.08 0 8.16 0 0 Z " fill="#F1EFF0" transform="translate(94,20)"/>
<path d="M0 0 C0.66 0.33 1.32 0.66 2 1 C1.86451549 6.41938044 -0.33656936 9.41904625 -3.91796875 13.2265625 C-8.71232602 17.31031147 -13.874656 18.29420731 -20.0625 18 C-25.20005142 17.30052117 -28.91383236 15.09316042 -33 12 C-32.06725891 10.87105124 -31.12859878 9.74699124 -30.1875 8.625 C-29.66542969 7.99851562 -29.14335937 7.37203125 -28.60546875 6.7265625 C-27 5 -27 5 -24 3 C-19.66590534 6.18683431 -16.3810038 9.86378916 -13 14 C-8.79467528 12.47605205 -6.74995834 9.3847135 -4.25 5.875 C-3.83878906 5.31167969 -3.42757812 4.74835937 -3.00390625 4.16796875 C-1.99523915 2.78398366 -0.99660714 1.39269459 0 0 Z " fill="#0F1E29" transform="translate(43,34)"/>
<path d="M0 0 C0.91459364 3.08675352 1.49308788 5.7949288 1 9 C-1.5 10.8125 -1.5 10.8125 -4 12 C-2.68 13.32 -1.36 14.64 0 16 C-3.20580406 17.60290203 -6.52182314 17.48117071 -10 17 C-12.5 15.4375 -12.5 15.4375 -14 13 C-14.5625 9.5 -14.5625 9.5 -14 6 C-12.0625 3.5625 -12.0625 3.5625 -9 2 C-5.96719442 1.69063354 -3.03580379 1.76189774 0 2 C0 1.34 0 0.68 0 0 Z " fill="#F6F4F5" transform="translate(126,27)"/>
<path d="M0 0 C2.31 0 4.62 0 7 0 C7.14601614 3.54122827 7.2343056 7.08167644 7.3125 10.625 C7.35439453 11.62402344 7.39628906 12.62304688 7.43945312 13.65234375 C7.57762058 21.99765784 7.57762058 21.99765784 4.60546875 25.7109375 C2 28 2 28 0 28 C0 18.76 0 9.52 0 0 Z " fill="#E7C260" transform="translate(34,4)"/>
<path d="M0 0 C1.88391785 3.26545761 2.49287967 6.28111761 3 10 C6.3 10 9.6 10 13 10 C10.92979111 13.22032494 8.88959825 16.16818855 6.3125 19 C3.86188874 22.17917137 3.2819897 24.05214418 3 28 C2.13375 26.824375 2.13375 26.824375 1.25 25.625 C-0.92605599 23.08626801 -1.95735123 22.14650533 -5 21 C-7.37301389 20.97022256 -7.37301389 20.97022256 -9.75 21.375 C-10.94882813 21.54128906 -10.94882813 21.54128906 -12.171875 21.7109375 C-12.77515625 21.80632813 -13.3784375 21.90171875 -14 22 C-14.33 21.01 -14.66 20.02 -15 19 C-9.72 19 -4.44 19 1 19 C0.03999112 10.9353225 0.03999112 10.9353225 -5 5 C-3.35 3.35 -1.7 1.7 0 0 Z " fill="#201E1F" transform="translate(193,16)"/>
<path d="M0 0 C-0.144375 0.804375 -0.28875 1.60875 -0.4375 2.4375 C-1.22767107 7.4419168 -1.74750837 12.46719331 -2.25 17.5078125 C-2.3325 18.30960938 -2.415 19.11140625 -2.5 19.9375 C-2.5721875 20.66839844 -2.644375 21.39929688 -2.71875 22.15234375 C-3 24 -3 24 -4 26 C-4.66 26 -5.32 26 -6 26 C-5.34 22.37 -4.68 18.74 -4 15 C-5.32 15 -6.64 15 -8 15 C-8 16.98 -8 18.96 -8 21 C-8.99 20.34 -9.98 19.68 -11 19 C-11.61488281 19.48210938 -12.22976562 19.96421875 -12.86328125 20.4609375 C-13.67152344 21.09257813 -14.47976562 21.72421875 -15.3125 22.375 C-16.11300781 23.00148438 -16.91351563 23.62796875 -17.73828125 24.2734375 C-19.44663212 25.57756718 -21.21172726 26.80781817 -23 28 C-23.66 27.34 -24.32 26.68 -25 26 C-24.505 24.515 -24.505 24.515 -24 23 C-22.67317699 22.64162924 -21.33867818 22.31117457 -20 22 C-18.3307156 20.70857783 -18.3307156 20.70857783 -16.8359375 19.05859375 C-15.98902344 18.18364258 -15.98902344 18.18364258 -15.125 17.29101562 C-14.25875 16.37352539 -14.25875 16.37352539 -13.375 15.4375 C-12.22073345 14.22348618 -11.06208966 13.01361428 -9.8984375 11.80859375 C-9.38974121 11.27032959 -8.88104492 10.73206543 -8.35693359 10.17749023 C-7 9 -7 9 -5 9 C-4.34 7.02 -3.68 5.04 -3 3 C-5.31 3.33 -7.62 3.66 -10 4 C-9.67 3.34 -9.34 2.68 -9 2 C-2.88888889 0 -2.88888889 0 0 0 Z " fill="#06322F" transform="translate(54,16)"/>
<path d="M0 0 C0.33 0 0.66 0 1 0 C1 1.65 1 3.3 1 5 C1.99 5 2.98 5 4 5 C5.32 8.96 6.64 12.92 8 17 C1.76647981 19.3548854 -3.45688671 18.87557031 -10 18 C-4 10 -4 10 -2.34375 7.9375 C-0.5711092 5.38159931 -0.34696955 3.05333208 0 0 Z " fill="#1B191A" transform="translate(215,20)"/>
<path d="M0 0 C1.98 0 3.96 0 6 0 C6 8.58 6 17.16 6 26 C0 21 0 21 -0.68115234 18.50463867 C-0.64973145 17.6510376 -0.61831055 16.79743652 -0.5859375 15.91796875 C-0.56660156 14.98662109 -0.54726563 14.05527344 -0.52734375 13.09570312 C-0.47707031 12.13599609 -0.42679688 11.17628906 -0.375 10.1875 C-0.33439453 8.71893555 -0.33439453 8.71893555 -0.29296875 7.22070312 C-0.22245648 4.81153379 -0.12398568 2.40691181 0 0 Z " fill="#F6CF68" transform="translate(26,9)"/>
<path d="M0 0 C0.66 0.33 1.32 0.66 2 1 C1.86116016 6.55359363 -0.52678332 9.4034447 -4.16015625 13.296875 C-7.72121938 16.5933156 -10.22420437 17 -15 17 C-14.67 15.68 -14.34 14.36 -14 13 C-12.68 13 -11.36 13 -10 13 C-8.06450375 10.86508899 -6.41502911 8.82813664 -4.75 6.5 C-4.29109375 5.87996094 -3.8321875 5.25992188 -3.359375 4.62109375 C-2.22809239 3.08914855 -1.11251346 1.54562939 0 0 Z " fill="#072230" transform="translate(43,34)"/>
<path d="M0 0 C0.495 1.485 0.495 1.485 1 3 C-0.75 5.5 -0.75 5.5 -3 8 C-3.474375 8.556875 -3.94875 9.11375 -4.4375 9.6875 C-10.15510319 14.49028668 -18.02396502 13.604341 -25 13 C-31.63481297 11.49393816 -36.69913703 9.33900231 -41 4 C-40.67 3.34 -40.34 2.68 -40 2 C-39.59910156 2.39832031 -39.19820312 2.79664063 -38.78515625 3.20703125 C-33.26632366 8.35043306 -28.01291849 10.48926492 -20.5625 11.4375 C-13.60952805 10.58362625 -7.07371181 7.91515831 -2 3 C-1.34 2.01 -0.68 1.02 0 0 Z " fill="#05293E" transform="translate(46,44)"/>
<path d="M0 0 C0.66 0.99 1.32 1.98 2 3 C0.4375 4.20442708 -1.125 5.40885417 -2.6875 6.61328125 C-4.34370205 8.04491137 -4.34370205 8.04491137 -4 11 C-11.38461538 11.49230769 -11.38461538 11.49230769 -14.5 9 C-14.995 8.34 -15.49 7.68 -16 7 C-15.34 7 -14.68 7 -14 7 C-13.67 6.34 -13.34 5.68 -13 5 C-12.34 5.33 -11.68 5.66 -11 6 C-10.34 4.68 -9.68 3.36 -9 2 C-8.67 2.33 -8.34 2.66 -8 3 C-5.58416247 3.33374277 -5.58416247 3.33374277 -3 3 C-1.18523997 1.60414215 -1.18523997 1.60414215 0 0 Z " fill="#F7F6F7" transform="translate(157,33)"/>
<path d="M0 0 C1.98 0 3.96 0 6 0 C6.48429115 5.3487267 6.78688728 9.6127109 3.5625 14.125 C2.716875 15.07375 1.87125 16.0225 1 17 C0.67 17 0.34 17 0 17 C0 11.39 0 5.78 0 0 Z " fill="#FACC5B" transform="translate(8,19)"/>
<path d="M0 0 C1.32 0.33 2.64 0.66 4 1 C4.33 2.32 4.66 3.64 5 5 C4.01 5.495 4.01 5.495 3 6 C3 6.66 3 7.32 3 8 C3.66 8.33 4.32 8.66 5 9 C4.34 11.97 3.68 14.94 3 18 C2.13375 16.824375 2.13375 16.824375 1.25 15.625 C-0.92605599 13.08626801 -1.95735123 12.14650533 -5 11 C-7.37301389 10.97022256 -7.37301389 10.97022256 -9.75 11.375 C-10.94882813 11.54128906 -10.94882813 11.54128906 -12.171875 11.7109375 C-12.77515625 11.80632813 -13.3784375 11.90171875 -14 12 C-14.33 11.01 -14.66 10.02 -15 9 C-9.72 9 -4.44 9 1 9 C0.67 6.03 0.34 3.06 0 0 Z " fill="#242223" transform="translate(193,26)"/>
<path d="M0 0 C0.99 0 1.98 0 3 0 C4.66666667 1.66666667 6.33333333 3.33333333 8 5 C10.9254644 5.2236068 10.9254644 5.2236068 13 4 C13 4.66 13 5.32 13 6 C13.66 6 14.32 6 15 6 C13.84826645 8.46800047 12.95216435 10.04783565 11 12 C7.14947394 11.74923045 5.31798433 9.63388355 2.75 6.9375 C2.04359375 6.20402344 1.3371875 5.47054687 0.609375 4.71484375 C0.07828125 4.14894531 -0.4528125 3.58304688 -1 3 C-0.67 2.01 -0.34 1.02 0 0 Z " fill="#49DE49" transform="translate(22,28)"/>
<path d="M0 0 C1.98 0 3.96 0 6 0 C6.17479953 3.56187657 6.28101143 7.12264773 6.375 10.6875 C6.42527344 11.69490234 6.47554687 12.70230469 6.52734375 13.74023438 C6.67307052 21.09943646 6.67307052 21.09943646 4.63769531 23.82275391 C2.9765625 25.20703125 2.9765625 25.20703125 0 27 C0 23.37 0 19.74 0 16 C1.32 15.34 2.64 14.68 4 14 C4.70535611 11.1213065 4.70535611 11.1213065 4.75 7.875 C4.80671875 6.77929688 4.8634375 5.68359375 4.921875 4.5546875 C4.94765625 3.71164062 4.9734375 2.86859375 5 2 C3.35 2 1.7 2 0 2 C0 1.34 0 0.68 0 0 Z " fill="#F2CD74" transform="translate(35,4)"/>
<path d="M0 0 C4.55555556 0.55555556 4.55555556 0.55555556 6 2 C6.1875 4.9375 6.1875 4.9375 6 8 C4 10 4 10 1.5 10.3125 C0.2625 10.1578125 0.2625 10.1578125 -1 10 C-3 7 -3 7 -2.75 4.4375 C-2 2 -2 2 0 0 Z " fill="#2C2A2B" transform="translate(150,27)"/>
<path d="M0 0 C0.99 0.99 1.98 1.98 3 3 C3.66 2.67 4.32 2.34 5 2 C7.6723621 1.86584528 10.32250488 1.95681459 13 2 C13 2.99 13 3.98 13 5 C12.40832031 5.03738281 11.81664063 5.07476563 11.20703125 5.11328125 C5.97290652 5.52605548 5.97290652 5.52605548 1.25 7.6875 C-1 9 -1 9 -3.6875 8.375 C-6 7 -6 7 -8 4 C-6.865625 3.71125 -5.73125 3.4225 -4.5625 3.125 C-3.386875 2.75375 -2.21125 2.3825 -1 2 C-0.67 1.34 -0.34 0.68 0 0 Z " fill="#222021" transform="translate(113,24)"/>
<path d="M0 0 C0 4.17561407 -1.83352478 5.53957787 -4.5 8.6875 C-5.3353125 9.68136719 -6.170625 10.67523438 -7.03125 11.69921875 C-7.6809375 12.45847656 -8.330625 13.21773437 -9 14 C-12.74020498 12.31847927 -14.56134348 10.30960527 -17 7 C-16.01 7 -15.02 7 -14 7 C-13.67 6.34 -13.34 5.68 -13 5 C-11.68 5.99 -10.36 6.98 -9 8 C-6.03 5.36 -3.06 2.72 0 0 Z " fill="#1BA0D8" transform="translate(41,35)"/>
<path d="M0 0 C0 2.31 0 4.62 0 7 C-3.64793184 8.27253436 -7.1936543 9.32829194 -11 10 C-6.81867589 -0.55286561 -6.81867589 -0.55286561 0 0 Z " fill="#EBE9EA" transform="translate(111,20)"/>
<path d="M0 0 C0.33 0 0.66 0 1 0 C1 9.57 1 19.14 1 29 C0.34 29.33 -0.32 29.66 -1 30 C-1 21.75 -1 13.5 -1 5 C-2.98 5 -4.96 5 -7 5 C-7 4.34 -7 3.68 -7 3 C-4.69 3 -2.38 3 0 3 C0 2.01 0 1.02 0 0 Z " fill="#241A02" transform="translate(33,4)"/>
<path d="M0 0 C1.98 0 3.96 0 6 0 C6 4.29 6 8.58 6 13 C4.02 12.01 2.04 11.02 0 10 C0 6.7 0 3.4 0 0 Z " fill="#E5CA70" transform="translate(17,13)"/>
<path d="M0 0 C0.99 0.33 1.98 0.66 3 1 C2.34 5.62 1.68 10.24 1 15 C-0.32 15 -1.64 15 -3 15 C-4.61050328 4.84682713 -4.61050328 4.84682713 -2.0625 1.3125 C-1.381875 0.879375 -0.70125 0.44625 0 0 Z " fill="#282627" transform="translate(138,21)"/>
<path d="M0 0 C-0.5987125 4.19098752 -1.16925439 8.16415206 -3 12 C-5.8125 13.125 -5.8125 13.125 -9 14 C-11.80804265 16.0115195 -11.80804265 16.0115195 -14 18 C-12.44396229 14.18063472 -10.04395069 11.73955562 -7 9 C-6.34 9 -5.68 9 -5 9 C-4.34 7.02 -3.68 5.04 -3 3 C-5.31 3.33 -7.62 3.66 -10 4 C-9.67 3.34 -9.34 2.68 -9 2 C-2.88888889 0 -2.88888889 0 0 0 Z " fill="#092F07" transform="translate(54,16)"/>
<path d="M0 0 C1.98 0.66 3.96 1.32 6 2 C5.67 3.32 5.34 4.64 5 6 C4.34 6 3.68 6 3 6 C3 6.99 3 7.98 3 9 C1.68 9 0.36 9 -1 9 C-1 8.34 -1 7.68 -1 7 C-1.66 7 -2.32 7 -3 7 C-2.25 2.25 -2.25 2.25 0 0 Z " fill="#1A1718" transform="translate(17,40)"/>
<path d="M0 0 C1.32 0 2.64 0 4 0 C4.87890625 6.15234375 4.87890625 6.15234375 5 8 C4 9 4 9 1.4375 9.0625 C0.633125 9.041875 -0.17125 9.02125 -1 9 C-1 11.31 -1 13.62 -1 16 C-1.33 16 -1.66 16 -2 16 C-2 12.33333333 -2 8.66666667 -2 5 C-1.01 5 -0.02 5 1 5 C0.67 3.35 0.34 1.7 0 0 Z " fill="#272526" transform="translate(220,38)"/>
<path d="M0 0 C1.49341969 2.98683937 0.40648676 4.95160978 -0.4375 8.125 C-0.72496094 9.22070312 -1.01242188 10.31640625 -1.30859375 11.4453125 C-1.65083984 12.70988281 -1.65083984 12.70988281 -2 14 C-2.66 14 -3.32 14 -4 14 C-4.41694996 12.40119187 -4.80790856 10.79558739 -5.1875 9.1875 C-5.40792969 8.29417969 -5.62835938 7.40085937 -5.85546875 6.48046875 C-6 4 -6 4 -4.73828125 2.23828125 C-3 1 -3 1 0 0 Z " fill="#252324" transform="translate(233,20)"/>
<path d="M0 0 C0.33 0 0.66 0 1 0 C1 1.65 1 3.3 1 5 C1.99 5 2.98 5 4 5 C4.66 7.31 5.32 9.62 6 12 C5.34 12 4.68 12 4 12 C3.67 12.66 3.34 13.32 3 14 C2.67 13.34 2.34 12.68 2 12 C1.01 11.67 0.02 11.34 -1 11 C-2.89463561 7.21072879 -1.24428677 3.80605364 0 0 Z " fill="#2D2B2C" transform="translate(215,20)"/>
<path d="M0 0 C-5.25056081 4.44278222 -10.23333989 5.2706664 -17 5 C-17 4.67 -17 4.34 -17 4 C-12.545 3.505 -12.545 3.505 -8 3 C-8 2.34 -8 1.68 -8 1 C-8.99 1.495 -8.99 1.495 -10 2 C-11.54023996 2.06950541 -13.08334988 2.08452357 -14.625 2.0625 C-15.85089844 2.04896484 -15.85089844 2.04896484 -17.1015625 2.03515625 C-18.04128906 2.01775391 -18.04128906 2.01775391 -19 2 C-19.33 1.34 -19.66 0.68 -20 0 C-19.39671875 0.01160156 -18.7934375 0.02320313 -18.171875 0.03515625 C-17.37265625 0.04417969 -16.5734375 0.05320313 -15.75 0.0625 C-14.96109375 0.07410156 -14.1721875 0.08570313 -13.359375 0.09765625 C-11.02645962 0.0834889 -11.02645962 0.0834889 -8.9375 -0.53125 C-5.87518129 -1.27213356 -3.06420298 -0.53034282 0 0 Z " fill="#1B9CCB" transform="translate(39,51)"/>
<path d="M0 0 C0 0.99 0 1.98 0 3 C0.33 3.99 0.66 4.98 1 6 C-1.97 8.475 -1.97 8.475 -5 11 C-5 10.34 -5 9.68 -5 9 C-7.33075929 9.95865509 -7.33075929 9.95865509 -9 13 C-9 9 -9 9 -7.03125 6.640625 C-5.77828125 5.45726562 -5.77828125 5.45726562 -4.5 4.25 C-3.6646875 3.45078125 -2.829375 2.6515625 -1.96875 1.828125 C-0.99421875 0.92320313 -0.99421875 0.92320313 0 0 Z " fill="#1EA5D6" transform="translate(15,34)"/>
<path d="M0 0 C0.66 0.99 1.32 1.98 2 3 C3.32381517 4.67423683 4.65576661 6.34211215 6 8 C5.67 8.66 5.34 9.32 5 10 C2.66666667 10 0.33333333 10 -2 10 C-2.1953125 3.9453125 -2.1953125 3.9453125 -2 2 C-1.34 1.34 -0.68 0.68 0 0 Z " fill="#262425" transform="translate(168,34)"/>
<path d="M0 0 C1.65 0 3.3 0 5 0 C5 5.94 5 11.88 5 18 C4.34 17.67 3.68 17.34 3 17 C3 12.38 3 7.76 3 3 C1.35 3 -0.3 3 -2 3 C-1.34 2.01 -0.68 1.02 0 0 Z " fill="#271902" transform="translate(20,10)"/>
<path d="M0 0 C5.875 3.625 5.875 3.625 7 7 C6.34 7 5.68 7 5 7 C4.67 6.34 4.34 5.68 4 5 C3.01 5 2.02 5 1 5 C1 4.34 1 3.68 1 3 C-2.11205929 4.98512949 -2.11205929 4.98512949 -3.75 8.1875 C-3.8325 8.785625 -3.915 9.38375 -4 10 C-3.34 10 -2.68 10 -2 10 C-2 10.66 -2 11.32 -2 12 C-4.475 11.01 -4.475 11.01 -7 10 C-7 7 -7 7 -5.46875 5.17578125 C-4.8190625 4.56089844 -4.169375 3.94601563 -3.5 3.3125 C-2.8503125 2.68988281 -2.200625 2.06726562 -1.53125 1.42578125 C-0.77328125 0.72001953 -0.77328125 0.72001953 0 0 Z " fill="#052B41" transform="translate(18,37)"/>
<path d="M0 0 C1.32 0 2.64 0 4 0 C3.88490339 1.41750563 3.75746342 2.83401169 3.625 4.25 C3.55539063 5.03890625 3.48578125 5.8278125 3.4140625 6.640625 C2.98492887 9.085877 2.21399362 10.84836903 1 13 C0.67 12.34 0.34 11.68 0 11 C0.33 10.01 0.66 9.02 1 8 C0.34 8 -0.32 8 -1 8 C-0.67 5.36 -0.34 2.72 0 0 Z " fill="#1C9FD4" transform="translate(46,31)"/>
<path d="M0 0 C2 2 4 4 6 6 C5.34 7.32 4.68 8.64 4 10 C3.67 9.34 3.34 8.68 3 8 C0.69 8.33 -1.62 8.66 -4 9 C-3.01 8.67 -2.02 8.34 -1 8 C-1.020625 6.865625 -1.04125 5.73125 -1.0625 4.5625 C-1 1 -1 1 0 0 Z " fill="#211F20" transform="translate(138,36)"/>
<path d="M0 0 C0.763125 0.0825 1.52625 0.165 2.3125 0.25 C3.32836535 3.29759605 3.31683442 4.70093253 2.9375 7.8125 C2.84726562 8.59753906 2.75703125 9.38257813 2.6640625 10.19140625 C2.3125 12.25 2.3125 12.25 1.3125 14.25 C0.6525 14.25 -0.0075 14.25 -0.6875 14.25 C-0.0275 10.62 0.6325 6.99 1.3125 3.25 C-0.9975 3.58 -3.3075 3.91 -5.6875 4.25 C-3.34903846 0.31153846 -3.34903846 0.31153846 0 0 Z " fill="#092230" transform="translate(48.6875,27.75)"/>
<path d="M0 0 C1.98 0 3.96 0 6 0 C6 1.65 6 3.3 6 5 C5.67 4.01 5.34 3.02 5 2 C4.01 2.33 3.02 2.66 2 3 C2.02320313 3.84304687 2.04640625 4.68609375 2.0703125 5.5546875 C2.08835937 6.65039062 2.10640625 7.74609375 2.125 8.875 C2.14820313 9.96554688 2.17140625 11.05609375 2.1953125 12.1796875 C2 15 2 15 0 17 C0 11.39 0 5.78 0 0 Z " fill="#E9D285" transform="translate(8,19)"/>
<path d="M0 0 C3 0 3 0 5.6875 2.375 C8 5 8 5 8 7 C6.68 7.33 5.36 7.66 4 8 C2.35 6.02 0.7 4.04 -1 2 C-0.67 1.34 -0.34 0.68 0 0 Z " fill="#46DF34" transform="translate(22,28)"/>
<path d="M0 0 C0.66 0.33 1.32 0.66 2 1 C2.33 1 2.66 1 3 1 C3.99 1.33 4.98 1.66 6 2 C4.7934375 3.11375 4.7934375 3.11375 3.5625 4.25 C1.23011409 6.75304829 0.36465606 7.7180955 0 11 C-0.66 11 -1.32 11 -2 11 C-2.625 8.625 -2.625 8.625 -3 6 C-2.34 5.34 -1.68 4.68 -1 4 C-0.3574765 1.93125966 -0.3574765 1.93125966 0 0 Z " fill="#0D2C27" transform="translate(5,37)"/>
<path d="M0 0 C0.66 0.33 1.32 0.66 2 1 C1.5020163 4.73487777 1.12508244 6.81237635 -1 10 C-2.32 9.67 -3.64 9.34 -5 9 C-4.319375 8.1646875 -4.319375 8.1646875 -3.625 7.3125 C-1.96266232 4.94686561 -0.97855457 2.70984342 0 0 Z " fill="#101D27" transform="translate(43,34)"/>
<path d="M0 0 C0.33 0 0.66 0 1 0 C1.33 5.61 1.66 11.22 2 17 C2.66 17 3.32 17 4 17 C2.25 20.875 2.25 20.875 0 22 C0 14.74 0 7.48 0 0 Z " fill="#1E2401" transform="translate(41,4)"/>
<path d="M0 0 C0.66 0 1.32 0 2 0 C2 0.66 2 1.32 2 2 C5.3 2 8.6 2 12 2 C11.67 2.66 11.34 3.32 11 4 C10.01 4 9.02 4 8 4 C7.34 4.66 6.68 5.32 6 6 C3.875 5.625 3.875 5.625 2 5 C2.33 4.34 2.66 3.68 3 3 C1.68 2.34 0.36 1.68 -1 1 C-0.67 0.67 -0.34 0.34 0 0 Z " fill="#171516" transform="translate(194,24)"/>
<path d="M0 0 C0 0.99 0 1.98 0 3 C-3.3 3.33 -6.6 3.66 -10 4 C-10 3.01 -10 2.02 -10 1 C-6.78548731 -0.60725635 -3.56387464 -0.05748185 0 0 Z " fill="#282627" transform="translate(126,26)"/>
<path d="M0 0 C0.66 0.33 1.32 0.66 2 1 C1.67 2.65 1.34 4.3 1 6 C-1.31 5.67 -3.62 5.34 -6 5 C-4.00856305 2.01284458 -3.23356015 1.21258505 0 0 Z " fill="#121D13" transform="translate(43,55)"/>
<path d="M0 0 C-0.66 1.32 -1.32 2.64 -2 4 C-3.65 4 -5.3 4 -7 4 C-7 2.68 -7 1.36 -7 0 C-4.3333581 -1.33332095 -2.83319697 -0.67102033 0 0 Z " fill="#282627" transform="translate(127,34)"/>
<path d="M0 0 C2.64 0 5.28 0 8 0 C7.67 1.32 7.34 2.64 7 4 C4.69 4 2.38 4 0 4 C0 2.68 0 1.36 0 0 Z " fill="#251E0E" transform="translate(34,0)"/>
<path d="M0 0 C0.66 0 1.32 0 2 0 C1.67 2.31 1.34 4.62 1 7 C1.66 7 2.32 7 3 7 C2.34 8.32 1.68 9.64 1 11 C1 10.01 1 9.02 1 8 C0.01 8 -0.98 8 -2 8 C-1.47731534 5.23723823 -0.89130413 2.6739124 0 0 Z " fill="#232222" transform="translate(234,44)"/>
<path d="M0 0 C0.66 0 1.32 0 2 0 C2.99 2.31 3.98 4.62 5 7 C3.35 6.67 1.7 6.34 0 6 C-0.38218767 4.34385343 -0.71395102 2.67542976 -1 1 C-0.67 0.67 -0.34 0.34 0 0 Z " fill="#12B0F0" transform="translate(8,43)"/>
<path d="M0 0 C0.66 0 1.32 0 2 0 C2 3.63 2 7.26 2 11 C1.01 11.495 1.01 11.495 0 12 C-0.19401633 10.18818595 -0.38004375 8.37551468 -0.5625 6.5625 C-0.66691406 5.55316406 -0.77132812 4.54382812 -0.87890625 3.50390625 C-0.91886719 2.67761719 -0.95882812 1.85132812 -1 1 C-0.67 0.67 -0.34 0.34 0 0 Z " fill="#1B1B0C" transform="translate(52,30)"/>
<path d="M0 0 C0 0.66 0 1.32 0 2 C-5.2734375 5.22265625 -5.2734375 5.22265625 -7 6 C-7.66 5.67 -8.32 5.34 -9 5 C-4.5 0 -4.5 0 0 0 Z " fill="#1D160C" transform="translate(48,50)"/>
<path d="M0 0 C-0.66 2.97 -1.32 5.94 -2 9 C-6 4.25 -6 4.25 -6 2 C-2.25 0 -2.25 0 0 0 Z " fill="#323031" transform="translate(198,35)"/>
<path d="M0 0 C-0.33 2.31 -0.66 4.62 -1 7 C-1.99 6.34 -2.98 5.68 -4 5 C-3.34 5 -2.68 5 -2 5 C-2.33 4.34 -2.66 3.68 -3 3 C-3.66 3 -4.32 3 -5 3 C-5 3.66 -5 4.32 -5 5 C-5.66 4.67 -6.32 4.34 -7 4 C-6.67 3.01 -6.34 2.02 -6 1 C-3.90006779 0.25486277 -2.22568901 0 0 0 Z " fill="#4FD956" transform="translate(51,19)"/>
<path d="M0 0 C0.33 0.66 0.66 1.32 1 2 C1.66 2.33 2.32 2.66 3 3 C-0.37097383 4.49821059 -2.20442119 5 -6 5 C-5.67 3.68 -5.34 2.36 -5 1 C-3.68 1 -2.36 1 -1 1 C-0.67 0.67 -0.34 0.34 0 0 Z " fill="#022C42" transform="translate(34,46)"/>
<path d="M0 0 C0.71484375 1.765625 0.71484375 1.765625 1 4 C-0.43359375 5.921875 -0.43359375 5.921875 -2.4375 7.75 C-3.42556641 8.67039062 -3.42556641 8.67039062 -4.43359375 9.609375 C-5.20896484 10.29773438 -5.20896484 10.29773438 -6 11 C-6 7.39426104 -5.18292538 6.58663434 -3 3.8125 C-2.443125 3.09707031 -1.88625 2.38164062 -1.3125 1.64453125 C-0.879375 1.10183594 -0.44625 0.55914063 0 0 Z " fill="#69BD4B" transform="translate(13,29)"/>
<path d="M0 0 C1.875 0.1875 1.875 0.1875 4 1 C5.25 3.5625 5.25 3.5625 6 6 C3.5625 5.25 3.5625 5.25 1 4 C0.1875 1.875 0.1875 1.875 0 0 Z " fill="#10B3EE" transform="translate(22,37)"/>
<path d="M0 0 C2.97 0 5.94 0 9 0 C6 3 6 3 3.3125 3.1875 C2.1678125 3.0946875 2.1678125 3.0946875 1 3 C0.67 2.01 0.34 1.02 0 0 Z " fill="#1C1C1C" transform="translate(178,35)"/>
<path d="M0 0 C0.99 0.66 1.98 1.32 3 2 C2.34 2 1.68 2 1 2 C1.33 2.99 1.66 3.98 2 5 C1.5625 7.1875 1.5625 7.1875 1 9 C0.01 8.67 -0.98 8.34 -2 8 C-1.34 5.36 -0.68 2.72 0 0 Z " fill="#241620" transform="translate(53,20)"/>
<path d="M0 0 C0.66 0 1.32 0 2 0 C2 0.66 2 1.32 2 2 C3.32 2.66 4.64 3.32 6 4 C5.34 5.32 4.68 6.64 4 8 C3.67 6.68 3.34 5.36 3 4 C2.01 4 1.02 4 0 4 C0 2.68 0 1.36 0 0 Z " fill="#222021" transform="translate(99,16)"/>
<path d="M0 0 C0.99 0 1.98 0 3 0 C3.185625 0.9590625 3.185625 0.9590625 3.375 1.9375 C3.684375 2.9584375 3.684375 2.9584375 4 4 C4.66 4.33 5.32 4.66 6 5 C4.02 5 2.04 5 0 5 C0 3.35 0 1.7 0 0 Z " fill="#1E1712" transform="translate(0,54)"/>
<path d="M0 0 C0 3 0 3 -2.5 5.6875 C-3.325 6.450625 -4.15 7.21375 -5 8 C-5.66 7.34 -6.32 6.68 -7 6 C-4.69 4.02 -2.38 2.04 0 0 Z " fill="#2D90B5" transform="translate(41,35)"/>
<path d="M0 0 C0.99 0 1.98 0 3 0 C3.33 0.99 3.66 1.98 4 3 C2.02 3.66 0.04 4.32 -2 5 C-1.125 1.125 -1.125 1.125 0 0 Z " fill="#181818" transform="translate(150,27)"/>
<path d="M0 0 C0.33 0 0.66 0 1 0 C1 3.3 1 6.6 1 10 C0.34 9.67 -0.32 9.34 -1 9 C-1.75 5.5625 -1.75 5.5625 -2 2 C-1.34 1.34 -0.68 0.68 0 0 Z " fill="#212121" transform="translate(155,13)"/>
<path d="M0 0 C1.98 0.66 3.96 1.32 6 2 C5.01 2.99 4.02 3.98 3 5 C0.525 4.01 0.525 4.01 -2 3 C-1.34 2.01 -0.68 1.02 0 0 Z " fill="#21A1CF" transform="translate(12,48)"/>
<path d="M0 0 C0 0.99 0 1.98 0 3 C0.33 3.99 0.66 4.98 1 6 C0.01 6.66 -0.98 7.32 -2 8 C-2.66 6.68 -3.32 5.36 -4 4 C-2.68 2.68 -1.36 1.36 0 0 Z " fill="#1699CC" transform="translate(15,34)"/>
<path d="M0 0 C1.32 1.32 2.64 2.64 4 4 C3.34 4 2.68 4 2 4 C1.67 4.99 1.34 5.98 1 7 C0.34 6.34 -0.32 5.68 -1 5 C-0.625 2.375 -0.625 2.375 0 0 Z " fill="#21A0DB" transform="translate(20,33)"/>
<path d="M0 0 C0.66 0 1.32 0 2 0 C2.125 2.375 2.125 2.375 2 5 C1.34 5.66 0.68 6.32 0 7 C-0.99 6.67 -1.98 6.34 -3 6 C-2.34 5.67 -1.68 5.34 -1 5 C-1.66 4.34 -2.32 3.68 -3 3 C-2.01 3 -1.02 3 0 3 C0 2.01 0 1.02 0 0 Z " fill="#1D1B1C" transform="translate(154,30)"/>
<path d="M0 0 C0.33 0.99 0.66 1.98 1 3 C0.34 3 -0.32 3 -1 3 C-1.66 4.32 -2.32 5.64 -3 7 C-3.66 6.34 -4.32 5.68 -5 5 C-5 4.34 -5 3.68 -5 3 C-4.01 3 -3.02 3 -2 3 C-2 2.34 -2 1.68 -2 1 C-1.34 0.67 -0.68 0.34 0 0 Z " fill="#3BF449" transform="translate(48,21)"/>
<path d="M0 0 C0.66 0 1.32 0 2 0 C2.33 0.99 2.66 1.98 3 3 C1.35 4.65 -0.3 6.3 -2 8 C-1.34 5.36 -0.68 2.72 0 0 Z " fill="#302E2F" transform="translate(240,24)"/>
<path d="M0 0 C0.66 0.66 1.32 1.32 2 2 C1.625 4.125 1.625 4.125 1 6 C0.34 6 -0.32 6 -1 6 C-1.33 6.66 -1.66 7.32 -2 8 C-2.66 7.01 -3.32 6.02 -4 5 C-3.67 4.34 -3.34 3.68 -3 3 C-2.34 3 -1.68 3 -1 3 C-0.67 2.01 -0.34 1.02 0 0 Z " fill="#242223" transform="translate(135,16)"/>
<path d="M0 0 C0.66 0.99 1.32 1.98 2 3 C1.34 3.66 0.68 4.32 0 5 C-0.99 5 -1.98 5 -3 5 C-3 3.68 -3 2.36 -3 1 C-2.01 0.67 -1.02 0.34 0 0 Z " fill="#38E439" transform="translate(33,35)"/>
<path d="M0 0 C4 0 4 0 6 1 C6 2.65 6 4.3 6 6 C3.97945196 4.35830472 1.97956942 2.69088222 0 1 C0 0.67 0 0.34 0 0 Z " fill="#D8DF63" transform="translate(26,29)"/>
<path d="M0 0 C0.75 1.75 0.75 1.75 1 4 C-0.9375 6.25 -0.9375 6.25 -3 8 C-3.36923077 3.44615385 -3.36923077 3.44615385 -1.5 1.1875 C-1.005 0.795625 -0.51 0.40375 0 0 Z " fill="#DCDD5D" transform="translate(13,25)"/>
<path d="M0 0 C1.65 0 3.3 0 5 0 C5 0.99 5 1.98 5 3 C3.02 3 1.04 3 -1 3 C-0.67 2.01 -0.34 1.02 0 0 Z " fill="#222222" transform="translate(179,26)"/>
<path d="M0 0 C2.64 0.66 5.28 1.32 8 2 C8 2.33 8 2.66 8 3 C4.37 3.33 0.74 3.66 -3 4 C-2.01 2.68 -1.02 1.36 0 0 Z " fill="#272526" transform="translate(118,17)"/>
</svg>
